<svg width="276" height="87" viewBox="0 0 276 87" fill="none" xmlns="http://www.w3.org/2000/svg">
<path d="M5.6 71V13.4H28.64C32.7467 13.4 36.0667 14.2267 38.6 15.88C41.1333 17.5067 42.9867 19.56 44.16 22.04C45.3333 24.52 45.92 27.0267 45.92 29.56C45.92 32.7867 45.1867 35.4667 43.72 37.6C42.28 39.7333 40.2933 41.16 37.76 41.88V39.88C41.36 40.6267 44.0533 42.2933 45.84 44.88C47.6533 47.4667 48.56 50.36 48.56 53.56C48.56 57 47.92 60.0267 46.64 62.64C45.3867 65.2533 43.4667 67.3067 40.88 68.8C38.2933 70.2667 35.04 71 31.12 71H5.6ZM16.64 60.76H30C31.4667 60.76 32.7733 60.4533 33.92 59.84C35.0667 59.2 35.96 58.32 36.6 57.2C37.2667 56.0533 37.6 54.7067 37.6 53.16C37.6 51.8 37.32 50.5867 36.76 49.52C36.2 48.4533 35.3467 47.6133 34.2 47C33.08 46.36 31.68 46.04 30 46.04H16.64V60.76ZM16.64 35.88H28.48C29.7067 35.88 30.8 35.6667 31.76 35.24C32.72 34.8133 33.48 34.16 34.04 33.28C34.6 32.3733 34.88 31.2133 34.88 29.8C34.88 28.04 34.3333 26.56 33.24 25.36C32.1467 24.16 30.56 23.56 28.48 23.56H16.64V35.88ZM72.6175 72.2C68.1908 72.2 64.2842 71.2533 60.8975 69.36C57.5375 67.44 54.8975 64.8133 52.9775 61.48C51.0842 58.12 50.1375 54.28 50.1375 49.96C50.1375 45.24 51.0708 41.1333 52.9375 37.64C54.8042 34.1467 57.3775 31.44 60.6575 29.52C63.9375 27.5733 67.7108 26.6 71.9775 26.6C76.5108 26.6 80.3642 27.6667 83.5375 29.8C86.7108 31.9333 89.0575 34.9333 90.5775 38.8C92.0975 42.6667 92.6308 47.2133 92.1775 52.44H81.4175V48.44C81.4175 44.04 80.7108 40.88 79.2975 38.96C77.9108 37.0133 75.6308 36.04 72.4575 36.04C68.7508 36.04 66.0175 37.1733 64.2575 39.44C62.5242 41.68 61.6575 45 61.6575 49.4C61.6575 53.4267 62.5242 56.5467 64.2575 58.76C66.0175 60.9467 68.5908 62.04 71.9775 62.04C74.1108 62.04 75.9375 61.5733 77.4575 60.64C78.9775 59.7067 80.1375 58.36 80.9375 56.6L91.8175 59.72C90.1908 63.6667 87.6175 66.7333 84.0975 68.92C80.6042 71.1067 76.7775 72.2 72.6175 72.2ZM58.2975 52.44V44.36H86.9375V52.44H58.2975ZM123.129 71C120.143 71.56 117.209 71.8 114.329 71.72C111.476 71.6667 108.916 71.1733 106.649 70.24C104.409 69.28 102.703 67.7467 101.529 65.64C100.463 63.6667 99.9027 61.6667 99.8494 59.64C99.796 57.5867 99.7694 55.2667 99.7694 52.68V15.8H110.649V52.04C110.649 53.72 110.663 55.24 110.689 56.6C110.743 57.9333 111.023 59 111.529 59.8C112.489 61.32 114.023 62.1467 116.129 62.28C118.236 62.4133 120.569 62.3067 123.129 61.96V71ZM92.4094 36.2V27.8H123.129V36.2H92.4094ZM153.849 71C150.863 71.56 147.929 71.8 145.049 71.72C142.196 71.6667 139.636 71.1733 137.369 70.24C135.129 69.28 133.423 67.7467 132.249 65.64C131.183 63.6667 130.623 61.6667 130.569 59.64C130.516 57.5867 130.489 55.2667 130.489 52.68V15.8H141.369V52.04C141.369 53.72 141.383 55.24 141.409 56.6C141.463 57.9333 141.743 59 142.249 59.8C143.209 61.32 144.743 62.1467 146.849 62.28C148.956 62.4133 151.289 62.3067 153.849 61.96V71ZM123.129 36.2V27.8H153.849V36.2H123.129ZM179.539 72.2C175.113 72.2 171.206 71.2533 167.819 69.36C164.459 67.44 161.819 64.8133 159.899 61.48C158.006 58.12 157.059 54.28 157.059 49.96C157.059 45.24 157.993 41.1333 159.859 37.64C161.726 34.1467 164.299 31.44 167.579 29.52C170.859 27.5733 174.633 26.6 178.899 26.6C183.433 26.6 187.286 27.6667 190.459 29.8C193.633 31.9333 195.979 34.9333 197.499 38.8C199.019 42.6667 199.553 47.2133 199.099 52.44H188.339V48.44C188.339 44.04 187.633 40.88 186.219 38.96C184.833 37.0133 182.553 36.04 179.379 36.04C175.673 36.04 172.939 37.1733 171.179 39.44C169.446 41.68 168.579 45 168.579 49.4C168.579 53.4267 169.446 56.5467 171.179 58.76C172.939 60.9467 175.513 62.04 178.899 62.04C181.033 62.04 182.859 61.5733 184.379 60.64C185.899 59.7067 187.059 58.36 187.859 56.6L198.739 59.72C197.113 63.6667 194.539 66.7333 191.019 68.92C187.526 71.1067 183.699 72.2 179.539 72.2ZM165.219 52.44V44.36H193.859V52.44H165.219ZM204.131 71V27.8H213.731V38.36L212.691 37C213.251 35.5067 213.998 34.1467 214.931 32.92C215.865 31.6933 217.011 30.68 218.371 29.88C219.411 29.24 220.545 28.7467 221.771 28.4C222.998 28.0267 224.265 27.8 225.571 27.72C226.878 27.6133 228.185 27.64 229.491 27.8V37.96C228.291 37.5867 226.891 37.4667 225.291 37.6C223.718 37.7067 222.291 38.0667 221.011 38.68C219.731 39.2667 218.651 40.0533 217.771 41.04C216.891 42 216.225 43.1467 215.771 44.48C215.318 45.7867 215.091 47.2667 215.091 48.92V71H204.131Z" fill="black"/>
<circle cx="257" cy="46" r="13" fill="#FFCC15"/>
</svg>
